<?xml version="1.0" encoding="UTF-8" standalone="no"?>
<!-- Created with Inkscape (http://www.inkscape.org/) -->

<svg
   xmlns:dc="http://purl.org/dc/elements/1.1/"
   xmlns:cc="http://creativecommons.org/ns#"
   xmlns:rdf="http://www.w3.org/1999/02/22-rdf-syntax-ns#"
   xmlns:svg="http://www.w3.org/2000/svg"
   xmlns="http://www.w3.org/2000/svg"
   xmlns:sodipodi="http://sodipodi.sourceforge.net/DTD/sodipodi-0.dtd"
   xmlns:inkscape="http://www.inkscape.org/namespaces/inkscape"
   height="192.76068"
   width="416.38297"
   version="1.1"
   id="svg2"
   inkscape:version="0.48.4 r9939"
   sodipodi:docname="bugout-box-logo-white.svg">
  <defs
     id="defs28" />
  <sodipodi:namedview
     pagecolor="#ffffff"
     bordercolor="#666666"
     borderopacity="1"
     objecttolerance="10"
     gridtolerance="10"
     guidetolerance="10"
     inkscape:pageopacity="0"
     inkscape:pageshadow="2"
     inkscape:window-width="1920"
     inkscape:window-height="1080"
     id="namedview26"
     showgrid="false"
     fit-margin-top="20"
     fit-margin-left="20"
     fit-margin-right="20"
     fit-margin-bottom="20"
     inkscape:zoom="1.4323701"
     inkscape:cx="423.50257"
     inkscape:cy="75.348917"
     inkscape:window-x="0"
     inkscape:window-y="0"
     inkscape:window-maximized="0"
     inkscape:current-layer="svg2" />
  <metadata
     id="metadata4">
    <rdf:RDF>
      <cc:Work
         rdf:about="">
        <dc:format>image/svg+xml</dc:format>
        <dc:type
           rdf:resource="http://purl.org/dc/dcmitype/StillImage" />
        <dc:title />
      </cc:Work>
    </rdf:RDF>
  </metadata>
  <path
     d="m 44.93558,20.6128 v 62.37 h -21.539 c -1.0863,0 -1.9231,-0.20791 -2.513,-0.61589 C 20.29366,81.95629 20,81.36897 20,80.60751 c 0,-1.2474 0.60552,-2.0712 1.8165,-2.4662 0.99792,-0.33526 1.58,-0.53796 1.7464,-0.61332 0.16629,-0.0754 0.34043,-0.25468 0.52236,-0.52755 0.36381,-0.48856 0.54311,-1.263 0.54311,-2.3285 v -45.73 c 0,-1.0707 -0.18193,-1.8477 -0.54311,-2.3311 C 23.90333,26.34056 23.72922,26.15865 23.5629,26.08328 23.39661,26.01058 22.81444,25.80261 21.8165,25.46736 20.6055,25.07497 20,24.24596 20,23.00116 c 0,-0.76664 0.29366,-1.354 0.88358,-1.762 0.58992,-0.4106 1.4267,-0.6185 2.513,-0.6185 h 21.539 v -0.007 z m 14.155,30.086 c 2.7391,0.54834 4.8467,1.0811 6.3254,1.5956 1.4761,0.51716 2.8093,1.172 3.9969,1.9621 2.04,1.3097 3.5993,3.0405 4.6804,5.1871 1.0811,2.1466 1.6216,4.5426 1.6216,7.1934 0,5.2079 -1.9179,9.2698 -5.7536,12.191 -1.9803,1.5229 -4.1632,2.5962 -6.5515,3.2199 -2.3908,0.62109 -5.5197,0.93553 -9.3841,0.93553 h -5.4392 v -4.7973 c 1.2188,-0.0911 2.1778,-0.27028 2.8768,-0.52755 0.69908,-0.25728 1.3254,-0.69386 1.8737,-1.2994 1.0057,-1.1305 1.5073,-2.8768 1.5073,-5.2521 v -10.364 c 0,-1.5229 -0.12999,-2.7105 -0.3872,-3.5629 -0.25728,-0.85239 -0.73545,-1.6294 -1.4319,-2.3285 -0.51456,-0.55094 -1.0759,-0.94334 -1.6814,-1.1876 -0.60552,-0.24687 -1.4683,-0.44439 -2.591,-0.59513 v -4.7453 c 1.1201,-0.0909 1.9906,-0.24688 2.6118,-0.46 0.62109,-0.21044 1.1902,-0.56391 1.7048,-1.0473 0.48597,-0.45737 0.89398,-1.0473 1.2266,-1.7828 0.33264,-0.73025 0.51456,-1.4007 0.54574,-2.0088 v -10.442 c 0,-0.82121 -0.13777,-1.6788 -0.41059,-2.578 -0.27287,-0.90178 -0.60812,-1.6086 -1.0057,-2.1258 -0.57954,-0.70167 -1.2266,-1.2188 -1.9413,-1.5541 -0.71465,-0.33524 -1.6814,-0.56394 -2.9002,-0.68606 v -5.026 h 5.2573 c 6.9439,0 12.243,1.4319 15.897,4.2983 1.6762,1.3098 2.9548,2.8898 3.8384,4.7505 0.88357,1.8633 1.3254,3.8696 1.3254,6.0317 0,2.1336 -0.4496,4.1476 -1.3488,6.0317 -0.8992,1.8945 -2.1544,3.4616 -3.7682,4.7116 -1.1876,0.97453 -2.5598,1.7672 -4.1138,2.3753 -1.554,0.60809 -3.7474,1.2448 -6.58,1.8867 z"
     id="path6"
     inkscape:connector-curvature="0"
     style="fill:#f9f9f9" />
  <path
     d="m 87.87158,64.3538 1.7109,-35.778 c 0.0511,-1.0695 -0.0935,-1.8543 -0.43119,-2.3544 -0.16881,-0.27866 -0.3366,-0.46878 -0.49653,-0.55189 -0.16009,-0.08044 -0.73679,-0.31623 -1.715,-0.69863 -1.1935,-0.44993 -1.757,-1.2886 -1.6986,-2.5086 0.038,-0.79431 0.35998,-1.3799 0.96872,-1.7592 0.61407,-0.38172 1.4624,-0.54928 2.5501,-0.49728 l 22.737,1.0873 1.637,0.26041 c 0.49628,0.17732 0.90388,0.46733 1.2147,0.87764 0.30806,0.41281 0.44628,0.89553 0.42009,1.4432 -0.0582,1.2174 -0.69645,1.996 -1.9302,2.3351 -1.0102,0.28733 -1.5989,0.46731 -1.7738,0.53179 -0.16971,0.06737 -0.35235,0.24072 -0.54695,0.50201 -0.38417,0.47075 -0.60273,1.233 -0.65387,2.3025 l -1.8306,38.282 c -0.12363,2.5854 -0.13976,4.3902 -0.051,5.4196 0.0888,1.0267 0.32271,1.9563 0.7091,2.7996 0.35818,0.77944 0.77325,1.3483 1.2453,1.7064 0.47201,0.35819 1.3806,0.78148 2.7282,1.2726 l -0.28586,5.9781 -1.0046,-0.04804 c -3.9586,-0.1893 -7.2281,-0.69685 -9.8139,-1.5204 -3.0369,-0.96475 -5.6756,-2.3137 -7.9088,-4.0362 -2.2332,-1.7224 -3.7952,-3.6054 -4.6725,-5.661 -0.93344,-2.1885 -1.302,-5.3099 -1.1071,-9.3854 z m 28.678,20.848 0.28587,-5.9781 c 3.0456,-0.24983 5.6362,-1.3774 7.7611,-3.3753 2.4148,-2.2937 3.7298,-5.6885 3.945,-10.189 l 1.4226,-29.75 c 0.19935,-4.1688 -1.255,-7.1601 -4.3642,-8.9531 -0.91634,-0.53294 -1.5141,-0.98302 -1.7856,-1.342 -0.27162,-0.35902 -0.38969,-0.88241 -0.35766,-1.5522 0.038,-0.7943 0.35293,-1.3412 0.94794,-1.651 0.59486,-0.30718 1.545,-0.42564 2.8532,-0.36308 l 11.195,0.53534 c 0.93968,0.04494 1.5667,0.09834 1.8892,0.15552 0.31966,0.06204 0.62035,0.19362 0.91537,0.3898 0.76987,0.49473 1.1347,1.1366 1.0966,1.9335 -0.032,0.6697 -0.30558,1.2212 -0.81011,1.6524 -0.16056,0.14591 -0.83682,0.52454 -2.0215,1.1417 -1.3745,0.66795 -2.4716,1.7394 -3.3041,3.2086 -0.83282,1.4744 -1.2937,3.1694 -1.3853,5.0851 l -1.4249,29.797 c -0.24441,5.1112 -1.5716,9.2521 -3.974,12.428 -1.7596,2.3562 -4.2045,4.1907 -7.3424,5.5028 -1.5504,0.64654 -3.4032,1.0913 -5.5426,1.3246 z"
     id="path8"
     inkscape:connector-curvature="0"
     style="fill:#f9f9f9" />
  <path
     d="m 174.41158,20.7528 v 5.0754 c -2.6533,0.64187 -3.9787,2.7755 -3.9787,6.4059 v 42.531 c 0,1.645 0.22608,2.908 0.67826,3.789 0.38983,0.73025 1.2214,1.354 2.4896,1.8737 v 5.1611 c -0.97453,0 -1.8659,-0.0754 -2.6715,-0.22863 -0.80562,-0.15341 -1.8815,-0.45737 -3.2199,-0.91477 -3.1964,-1.0966 -6.0915,-2.7703 -8.6798,-5.0286 -2.5884,-2.2583 -4.7194,-4.9506 -6.3955,-8.0873 -2.5884,-4.9065 -3.8825,-10.704 -3.8825,-17.409 0,-6.4865 1.1564,-12.243 3.4693,-17.271 2.3129,-5.0286 5.6315,-8.9709 9.9558,-11.837 2.4948,-1.6788 5.1741,-2.8768 8.0354,-3.6123 1.1876,-0.29626 2.5858,-0.44701 4.1996,-0.44701 z m 24.449,55.98 c -1.224,1.2188 -2.8456,2.4558 -4.8675,3.7214 -2.0296,1.263 -3.9423,2.2583 -5.738,2.9886 -1.645,0.63931 -3.4668,1.1565 -5.4626,1.5541 -1.9958,0.39762 -3.7552,0.59513 -5.2781,0.59513 v -5.1585 c 0.88359,-0.21298 1.5463,-0.47558 1.9881,-0.77962 0.44178,-0.30146 0.81339,-0.72766 1.12,-1.276 0.51715,-0.94335 0.77703,-2.1466 0.77703,-3.6123 v -13.324 c 0,-1.1876 -0.22863,-2.04 -0.68347,-2.5546 -0.21297,-0.30405 -0.42621,-0.49118 -0.6367,-0.57171 -0.21299,-0.0727 -0.91215,-0.25208 -2.0972,-0.52496 -1.4579,-0.36644 -2.1855,-1.2162 -2.1855,-2.552 0,-0.79262 0.34044,-1.4007 1.0265,-1.8269 0.68347,-0.42621 1.6918,-0.6393 3.0301,-0.6393 h 18.235 c 1.3826,0 2.3571,0.18722 2.9262,0.57173 0.57173,0.382 0.85501,1.0421 0.85501,1.988 0,0.58212 -0.11428,1.0551 -0.34826,1.4397 -0.22861,0.37941 -0.65487,0.78483 -1.2682,1.211 -0.6159,0.42619 -1.0057,0.81602 -1.1538,1.185 -0.15847,0.36904 -0.23391,1.0317 -0.23391,2.0062 v 15.561 h -0.004 z m -20.712,-50.995 v -4.9376 c 4.9636,0.45997 9.0463,1.3696 12.245,2.7443 0.94337,0.4262 1.6762,0.6393 2.1934,0.6393 0.48857,0 0.86278,-0.11171 1.1252,-0.34304 0.25988,-0.22862 0.78223,-0.87317 1.5696,-1.9309 0.54835,-0.75623 1.2344,-1.1383 2.0608,-1.1383 0.8498,0 1.4527,0.23909 1.8009,0.70427 0.34824,0.46779 0.52495,1.2474 0.52495,2.3389 v 17.796 c 0,2.2947 -0.85237,3.4408 -2.5572,3.4408 -0.85497,0 -1.4839,-0.22861 -1.8945,-0.68865 -0.40801,-0.45741 -0.80302,-1.354 -1.1642,-2.6923 -0.45997,-1.6996 -1.2786,-3.6902 -2.4662,-5.9538 -1.1876,-2.2687 -2.3285,-4.0593 -3.4252,-5.3638 -1.2474,-1.5229 -2.6507,-2.6404 -4.2048,-3.355 -1.5567,-0.71725 -3.4927,-1.1383 -5.8082,-1.2604 z"
     id="path10"
     inkscape:connector-curvature="0"
     style="fill:#f9f9f9" />
  <path
     d="m 243.05158,24.9298 c -1.5633,0.49264 -2.6821,1.1996 -3.351,2.1185 -0.66893,0.9163 -1.0404,2.2911 -1.1092,4.1245 l -1.532,40.813 c -0.1005,2.6774 0.19231,4.5764 0.87567,5.6996 0.53949,0.93828 1.559,1.6293 3.0582,2.0809 l -0.18862,5.0251 c -6.7393,-0.80169 -12.305,-3.5514 -16.701,-8.2649 -5.715,-6.1257 -8.3715,-14.472 -7.9749,-25.039 0.19867,-5.2926 1.1627,-10.051 2.8891,-14.268 1.7264,-4.2184 4.187,-7.7616 7.3712,-10.63 2.4281,-2.1948 5.0201,-3.8347 7.7732,-4.9198 2.7531,-1.0851 5.7779,-1.6451 9.0711,-1.6697 l -0.18201,4.929 z m 3.7344,0.14018 0.18521,-4.9341 c 3.2871,0.27691 6.2694,1.0571 8.9542,2.3463 2.6822,1.2891 5.1543,3.1191 7.4189,5.49 5.9895,6.2946 8.7822,14.825 8.3776,25.602 -0.39646,10.562 -3.6791,18.685 -9.8426,24.37 -4.7446,4.3963 -10.524,6.7202 -17.34,6.9871 l 0.18863,-5.0251 c 0.79879,-0.14955 1.4256,-0.36 1.878,-0.63427 0.4522,-0.26909 0.87312,-0.67458 1.2598,-1.2088 0.86994,-1.213 1.3538,-3.0881 1.4486,-5.6149 l 1.532,-40.813 c 0.0606,-1.6153 -0.16667,-2.9033 -0.67902,-3.8718 -0.3422,-0.65261 -0.75975,-1.1676 -1.2471,-1.5552 -0.49006,-0.38509 -1.2013,-0.76548 -2.134,-1.1385 z"
     id="path12"
     inkscape:connector-curvature="0"
     style="fill:#f9f9f9" />
  <path
     d="m 343.80158,22.5308 12.008,-0.52363 0.24127,5.5327 c -1.3948,0.88282 -2.4602,1.9828 -3.1962,3.2973 -1.2182,2.1289 -1.994,4.6209 -2.3274,7.4734 l -0.33544,2.8058 c -0.11467,0.89204 -0.4117,1.5942 -0.8907,2.1224 -0.47924,0.52295 -1.1017,0.80501 -1.8598,0.83807 -0.79186,0.03453 -1.4502,-0.2099 -1.9778,-0.73575 -0.52757,-0.52583 -0.80795,-1.229 -0.84644,-2.1117 l -0.81541,-18.698 z m 36.026,-1.571 2.3391,53.639 c 0.0517,1.1865 0.31728,2.0281 0.7993,2.5222 0.2573,0.29313 0.49407,0.47267 0.71316,0.54637 0.21596,0.06335 0.93063,0.22475 2.1356,0.47655 1.4763,0.27118 2.2502,1.075 2.3086,2.4147 0.0345,0.79186 -0.33486,1.4479 -1.1055,1.9679 -0.56821,0.39154 -1.539,0.61598 -2.9099,0.67576 l -23.391,1.02 c -1.3345,0.0582 -2.3534,-0.10296 -3.0542,-0.48332 -0.70071,-0.38042 -1.0704,-0.9834 -1.1061,-1.8038 -0.0584,-1.3397 0.63209,-2.2074 2.074,-2.6058 1.1706,-0.3554 1.8609,-0.57278 2.0704,-0.65997 0.20938,-0.08721 0.41141,-0.28846 0.61094,-0.60411 0.43195,-0.53389 0.62328,-1.3954 0.57154,-2.582 l -2.3391,-53.639 20.283,-0.8845 z m 15.736,-0.68623 0.81506,18.69 c 0.0387,0.88793 -0.18209,1.6103 -0.65928,2.18 -0.47708,0.57227 -1.1144,0.8706 -1.9063,0.90513 -0.7607,0.03317 -1.4026,-0.19116 -1.9256,-0.67299 -0.52293,-0.47923 -0.8803,-1.1581 -1.0748,-2.0393 l -0.57834,-2.7633 c -0.58058,-2.8152 -1.5702,-5.2277 -2.969,-7.2424 -0.87624,-1.2442 -2.0357,-2.2419 -3.4711,-3.0065 l -0.24138,-5.5353 12.008,-0.52363 3.1e-4,0.007 z"
     id="path14"
     inkscape:connector-curvature="0"
     style="fill:#f9f9f9" />
  <path
     d="m 286.50158,66.8328 v -35.819 c 0,-1.0707 -0.18193,-1.8477 -0.54314,-2.3311 -0.18193,-0.27027 -0.35864,-0.45217 -0.52236,-0.52755 -0.16376,-0.0727 -0.75104,-0.28066 -1.7464,-0.61591 -1.2136,-0.39241 -1.8165,-1.2032 -1.8165,-2.4246 0,-0.79522 0.29366,-1.3955 0.88357,-1.8035 0.59512,-0.41063 1.4345,-0.61852 2.5234,-0.61852 h 22.763 l 1.6476,0.18192 c 0.50416,0.15341 0.92515,0.42362 1.2552,0.81862 0.32744,0.39762 0.48855,0.8732 0.48855,1.4215 0,1.2188 -0.60029,2.027 -1.8165,2.4246 -0.99533,0.33525 -1.5748,0.54315 -1.7464,0.61592 -0.16629,0.0754 -0.34044,0.25727 -0.52236,0.52755 -0.36122,0.48856 -0.54314,1.2604 -0.54314,2.3311 v 38.326 c 0,2.5884 0.0701,4.3919 0.20793,5.4158 0.13777,1.0213 0.4158,1.9387 0.842,2.7625 0.39502,0.76144 0.83681,1.3098 1.3254,1.645 0.48856,0.33524 1.4163,0.71465 2.7859,1.1409 v 5.9849 h -1.0057 c -3.9631,0 -7.2531,-0.35084 -9.8753,-1.0499 -3.0795,-0.81862 -5.7796,-2.04 -8.0925,-3.6539 -2.3129,-1.6138 -3.9631,-3.42 -4.9376,-5.4314 -1.0369,-2.1414 -1.5541,-5.2417 -1.5541,-9.3218 z m 29.641,19.454 v -5.985 c 3.0302,-0.39502 5.5639,-1.645 7.591,-3.7422 2.3025,-2.4064 3.4537,-5.8602 3.4537,-10.366 v -29.784 c 0,-4.1736 -1.5956,-7.092 -4.7869,-8.7344 -0.94076,-0.48856 -1.5592,-0.90958 -1.8477,-1.2552 -0.28847,-0.34565 -0.43138,-0.8628 -0.43138,-1.5333 0,-0.79524 0.28843,-1.3566 0.86797,-1.6944 0.57952,-0.33524 1.5229,-0.49895 2.8326,-0.49895 h 11.208 c 0.94075,0 1.5696,0.0234 1.8945,0.0651 0.32226,0.0467 0.6289,0.16376 0.93296,0.34564 0.79264,0.45737 1.1876,1.0811 1.1876,1.8789 0,0.67049 -0.24688,1.2344 -0.73024,1.6892 -0.15341,0.15341 -0.81081,0.56394 -1.9647,1.237 -1.341,0.73284 -2.3857,1.8555 -3.1471,3.3628 -0.76144,1.5125 -1.1409,3.2276 -1.1409,5.1455 v 29.831 c 0,5.117 -1.1278,9.3166 -3.3758,12.604 -1.645,2.4376 -3.9995,4.3867 -7.0712,5.8472 -1.5177,0.71985 -3.3472,1.2526 -5.473,1.5878 z"
     id="path16"
     inkscape:connector-curvature="0"
     style="fill:#f9f9f9" />
  <path
     id="path3005"
     d="m 142.67569,110.39004 v 62.37001 h -21.539 c -1.0863,0 -1.9231,-0.20791 -2.513,-0.61589 -0.58992,-0.41062 -0.88358,-0.99795 -0.88358,-1.75941 0,-1.24739 0.60552,-2.07119 1.8165,-2.46619 0.99792,-0.33526 1.58,-0.53796 1.7464,-0.61333 0.16629,-0.0754 0.34043,-0.25467 0.52236,-0.52754 0.36381,-0.48857 0.54311,-1.26301 0.54311,-2.3285 v -45.73001 c 0,-1.0707 -0.18193,-1.8477 -0.54311,-2.3311 -0.18193,-0.27028 -0.35604,-0.45219 -0.52236,-0.52756 -0.16629,-0.0727 -0.74846,-0.28067 -1.7464,-0.61592 -1.211,-0.39239 -1.8165,-1.2214 -1.8165,-2.4662 0,-0.76664 0.29366,-1.354 0.88358,-1.762 0.58992,-0.4106 1.4267,-0.6185 2.513,-0.6185 h 21.539 v -0.007 z m 14.155,30.086 c 2.7391,0.54834 4.8467,1.0811 6.3254,1.5956 1.4761,0.51716 2.8093,1.172 3.9969,1.9621 2.04,1.3097 3.5993,3.0405 4.6804,5.1871 1.0811,2.1466 1.6216,4.5426 1.6216,7.1934 0,5.2079 -1.9179,9.26981 -5.7536,12.19101 -1.9803,1.5229 -4.1632,2.59619 -6.5515,3.2199 -2.3908,0.62109 -5.5197,0.93553 -9.3841,0.93553 h -5.4392 v -4.79731 c 1.2188,-0.0911 2.1778,-0.27028 2.8768,-0.52755 0.69908,-0.25728 1.3254,-0.69385 1.8737,-1.2994 1.0057,-1.13049 1.5073,-2.8768 1.5073,-5.2521 v -10.364 c 0,-1.5229 -0.12999,-2.7105 -0.3872,-3.5629 -0.25728,-0.85239 -0.73545,-1.6294 -1.4319,-2.3285 -0.51456,-0.55094 -1.0759,-0.94334 -1.6814,-1.1876 -0.60552,-0.24687 -1.4683,-0.44439 -2.591,-0.59513 v -4.7453 c 1.1201,-0.0909 1.9906,-0.24688 2.6118,-0.46 0.62109,-0.21044 1.1902,-0.56391 1.7048,-1.0473 0.48597,-0.45737 0.89398,-1.0473 1.2266,-1.7828 0.33264,-0.73025 0.51456,-1.4007 0.54574,-2.0088 v -10.442 c 0,-0.82121 -0.13777,-1.6788 -0.41059,-2.578 -0.27287,-0.90178 -0.60812,-1.6086 -1.0057,-2.1258 -0.57954,-0.70167 -1.2266,-1.2188 -1.9413,-1.5541 -0.71465,-0.33524 -1.6814,-0.56394 -2.9002,-0.68606 v -5.026 h 5.2573 c 6.9439,0 12.243,1.4319 15.897,4.2983 1.6762,1.3098 2.9548,2.8898 3.8384,4.7505 0.88357,1.8633 1.3254,3.8696 1.3254,6.0317 0,2.1336 -0.4496,4.1476 -1.3488,6.0317 -0.8992,1.8945 -2.1544,3.4616 -3.7682,4.7116 -1.1876,0.97453 -2.5598,1.7672 -4.1138,2.3753 -1.554,0.60809 -3.7474,1.2448 -6.58,1.8867 z"
     inkscape:connector-curvature="0"
     style="fill:#f9f9f9" />
  <path
     id="path3007"
     d="m 211.61517,110.59904 c -1.53587,0.57245 -2.6168,1.33605 -3.23752,2.28816 -0.62088,0.94952 -0.9211,2.34162 -0.89545,4.17613 l 0.57062,40.83775 c 0.0374,2.67903 0.4276,4.56045 1.16786,5.64698 0.58707,0.90926 1.64079,1.5469 3.16125,1.92074 l 0.0703,5.02815 c -6.77163,-0.45378 -12.47148,-2.91337 -17.10425,-7.39437 -6.0227,-5.82344 -9.10525,-14.02196 -9.25305,-24.59536 -0.074,-5.29581 0.64383,-10.09753 2.15092,-14.39779 1.507,-4.30166 3.78197,-7.96681 6.81432,-10.99529 2.31192,-2.31686 4.81608,-4.08801 7.50969,-5.31336 2.6936,-1.22536 5.68557,-1.9403 8.97313,-2.13437 l 0.0719,4.93185 z m 3.73667,-0.0522 -0.069,-4.9371 c 3.29699,0.10736 6.31549,0.73302 9.06309,1.88233 2.74499,1.14934 5.308,2.84969 7.69163,5.10089 6.30553,5.97798 9.53358,14.35334 9.68419,25.13688 0.14767,10.56841 -2.71254,18.8496 -8.57526,24.84429 -4.51205,4.63467 -10.16418,7.25295 -16.95741,7.87031 l -0.0702,-5.02814 c 0.79003,-0.19046 1.40518,-0.43291 1.84287,-0.7301 0.43775,-0.29201 0.83723,-0.71863 1.1959,-1.27204 0.80637,-1.25617 1.19307,-3.15369 1.1577,-5.68201 l -0.57065,-40.83777 c -0.0226,-1.61628 -0.31587,-2.89088 -0.8774,-3.83172 -0.37533,-0.63413 -0.81883,-1.12695 -1.32549,-1.48896 -0.50922,-0.35935 -1.2391,-0.70263 -2.18977,-1.02715 z"
     inkscape:connector-curvature="0"
     style="fill:#f9f9f9" />
  <path
     d="m 276.34415,116.40617 23.44963,44.57021 c 0.55803,1.01535 1.29935,1.74672 2.2214,2.19163 0.80493,0.39028 1.35276,0.75491 1.64631,1.10383 0.29096,0.3465 0.44483,0.82742 0.46168,1.4453 0.0215,0.79119 -0.25507,1.43215 -0.83491,1.92302 -0.48609,0.42546 -1.54293,0.66038 -3.15796,0.70439 l -20.70655,0.56425 c -1.60499,0.0437 -2.64263,-0.031 -3.12294,-0.22408 -1.04695,-0.41637 -1.58483,-1.15327 -1.61358,-2.20818 -0.0104,-0.38179 0.0835,-0.71864 0.28687,-1.00319 0.20346,-0.28205 0.58332,-0.63928 1.14986,-1.06443 0.99971,-0.76371 1.47861,-1.45292 1.43652,-2.07513 -0.0438,-0.49901 -0.33047,-1.24275 -0.85502,-2.22887 l -22.90643,-43.08441 c -0.37672,-0.72621 -0.7718,-1.29608 -1.19535,-1.71184 -0.42607,-0.4157 -0.9843,-0.79262 -1.66716,-1.13093 -0.59568,-0.27535 -1.01148,-0.59078 -1.24215,-0.9389 -0.23069,-0.34814 -0.3519,-0.82995 -0.36874,-1.44784 -0.024,-0.88412 0.27304,-1.51055 0.90143,-1.87958 0.6233,-0.37139 1.74627,-0.57795 3.37135,-0.62223 l 20.57343,-0.56062 c 1.48944,-0.0406 2.56966,0.12101 3.23318,0.48751 0.66854,0.36635 1.0193,0.97011 1.04263,1.8266 0.0233,0.85398 -0.44102,1.61819 -1.38794,2.28999 -0.43071,0.33599 -0.72214,0.61791 -0.87687,0.84332 -0.15222,0.22534 -0.22696,0.5265 -0.21656,0.90828 -9.8e-4,0.41227 0.12884,0.85362 0.37787,1.3219 z m -10.04584,31.30385 2.56849,4.96722 -2.60134,4.52746 c -0.94975,1.6748 -1.41384,2.99951 -1.38749,3.96653 0.0385,1.41159 0.85275,2.42247 2.44261,3.02262 0.88379,0.33285 1.48607,0.66583 1.81974,1.01115 0.3287,0.34797 0.5026,0.82583 0.51943,1.44372 0.0224,0.82385 -0.31567,1.51423 -0.99948,2.06322 -0.25561,0.21309 -0.54837,0.35429 -0.8708,0.42088 -0.31747,0.064 -0.93203,0.11084 -1.83373,0.13541 l -11.39062,0.31039 c -0.94189,0.0256 -1.6932,-0.14993 -2.24906,-0.53191 -0.55836,-0.38194 -0.83966,-0.92726 -0.8589,-1.63306 -0.0153,-0.56262 0.13547,-1.0242 0.46693,-1.40524 0.3291,-0.37595 0.91744,-0.73885 1.76259,-1.08613 2.18446,-0.91667 3.85443,-2.35721 5.00715,-4.33161 l 7.60448,-12.88068 z m 20.32596,-19.32778 -2.60506,-4.833 2.35946,-4.27203 c 0.53355,-0.98981 0.792,-1.83639 0.77284,-2.53967 -0.0178,-0.65304 -0.23605,-1.28303 -0.64464,-1.88771 -0.41369,-0.60707 -0.94615,-1.05255 -1.59721,-1.33141 l -1.5564,-0.6639 c -0.29289,-0.14032 -0.5617,-0.412 -0.79145,-0.81798 -0.23225,-0.40589 -0.35148,-0.81486 -0.36271,-1.22679 -0.0192,-0.70579 0.21152,-1.27763 0.69509,-1.70304 0.48359,-0.4254 1.13354,-0.64923 1.94984,-0.67147 l 12.7595,-0.34769 c 0.82887,-0.0226 1.52215,0.14453 2.08478,0.49869 0.56264,0.35417 0.84942,0.82393 0.86537,1.40916 0.0194,0.71081 -0.22753,1.33588 -0.74306,1.8803 -0.20375,0.17898 -0.8115,0.56755 -1.82617,1.15071 -2.06343,1.20745 -3.75867,2.92013 -5.08585,5.13306 l -6.27433,10.22277 z"
     id="path3137"
     inkscape:connector-curvature="0"
     style="fill:#f9f9f9;fill-opacity:1" />
  <g
     id="g3395"
     font-style="normal"
     font-weight="normal"
     font-variant="normal"
     font-stretch="normal"
     style="font-size:103.95037078999999380px;font-style:normal;font-variant:normal;font-weight:normal;font-stretch:normal;text-align:center;line-height:125%;letter-spacing:0px;word-spacing:0px;writing-mode:lr-tb;text-anchor:middle;fill:#f9f9f9;font-family:Arial"
     transform="matrix(1.2510815,0.44657462,-0.44657462,1.2510815,-114.53323,-577.67716)"
     line-height="125%"
     font-size="103.95037079px">
    <path
       inkscape:connector-curvature="0"
       id="path3397"
       d="m 508.94,385.57 2.3348,-7.2075 c 5.3802,1.895 9.2885,3.5361 11.725,4.9234 -0.64294,-6.1246 -0.98132,-10.337 -1.0151,-12.638 h 7.3598 c -0.10154,3.35 -0.49067,7.5459 -1.1674,12.588 3.4853,-1.7595 7.4782,-3.3837 11.979,-4.8727 l 2.3348,7.2075 c -4.2975,1.4213 -8.5103,2.3687 -12.638,2.8424 2.0641,1.7935 4.9742,4.9912 8.7302,9.5931 l -6.0908,4.3144 c -1.9626,-2.6732 -4.2805,-6.3107 -6.9537,-10.913 -2.504,4.7712 -4.7035,8.4088 -6.5984,10.913 l -5.9893,-4.3144 c 3.9252,-4.8388 6.7338,-8.0365 8.4257,-9.5931 -4.3651,-0.84589 -8.5103,-1.7934 -12.435,-2.8424"
       style="fill:#f9f9f9" />
  </g>
  <g
     font-size="103.95037079px"
     line-height="125%"
     transform="matrix(1.2867458,-0.33002871,0.33002871,1.2867458,-760.48981,-185.00467)"
     style="font-size:103.95037078999999380px;font-style:normal;font-variant:normal;font-weight:normal;font-stretch:normal;text-align:center;line-height:125%;letter-spacing:0px;word-spacing:0px;writing-mode:lr-tb;text-anchor:middle;fill:#f9f9f9;font-family:Arial"
     font-stretch="normal"
     font-variant="normal"
     font-weight="normal"
     font-style="normal"
     id="g3399">
    <path
       d="m 508.94,385.57 2.3348,-7.2075 c 5.3802,1.895 9.2885,3.5361 11.725,4.9234 -0.64294,-6.1246 -0.98132,-10.337 -1.0151,-12.638 h 7.3598 c -0.10154,3.35 -0.49067,7.5459 -1.1674,12.588 3.4853,-1.7595 7.4782,-3.3837 11.979,-4.8727 l 2.3348,7.2075 c -4.2975,1.4213 -8.5103,2.3687 -12.638,2.8424 2.0641,1.7935 4.9742,4.9912 8.7302,9.5931 l -6.0908,4.3144 c -1.9626,-2.6732 -4.2805,-6.3107 -6.9537,-10.913 -2.504,4.7712 -4.7035,8.4088 -6.5984,10.913 l -5.9893,-4.3144 c 3.9252,-4.8388 6.7338,-8.0365 8.4257,-9.5931 -4.3651,-0.84589 -8.5103,-1.7934 -12.435,-2.8424"
       id="path3401"
       inkscape:connector-curvature="0"
       style="fill:#f9f9f9" />
  </g>
</svg>
